<svg width="96" height="96" viewBox="0 0 96 96" fill="none" xmlns="http://www.w3.org/2000/svg">
<circle cx="48" cy="48" r="48" fill="#92BD2D"/>
<path fill-rule="evenodd" clip-rule="evenodd" d="M58.1713 19.0558C58.2132 18.9966 58.2955 18.9822 58.3552 19.0237L62.4389 21.8576C62.4987 21.8991 62.5132 21.9807 62.4714 22.0399L56.7875 30.0848C59.5508 30.9597 61.4333 31.9035 61.4333 31.9035C61.4333 31.9035 56.8318 39.748 49.027 39.748C41.2223 39.748 35.6763 32.4367 35.6763 32.4367C35.6763 32.4367 37.6428 31.193 40.5578 30.1262L34.3234 22.7627C34.2765 22.7073 34.2838 22.6248 34.3396 22.5783L38.1586 19.4024C38.2146 19.356 38.2978 19.3632 38.3446 19.4185L46.2385 28.7421C46.9144 28.6663 47.603 28.624 48.2979 28.624C49.2966 28.624 50.2941 28.6992 51.2679 28.8269L58.1713 19.0558ZM59.7154 40.1195C61.7982 38.6453 64.9498 34.7975 64.9498 34.7975C64.9498 34.7975 73 41.1199 73 54.5258C73 67.9316 59.0825 76 59.0825 76C59.0825 76 52.4329 69.3446 50.8005 60.9079C49.1682 52.4712 53.2152 43.1032 53.2152 43.1032C53.2152 43.1032 57.6326 41.5937 59.7154 40.1195ZM37.2846 40.1195C35.2018 38.6453 32.0502 34.7975 32.0502 34.7975C32.0502 34.7975 24 41.1199 24 54.5258C24 67.9316 37.9175 76 37.9175 76C37.9175 76 44.5671 69.3446 46.1995 60.9079C47.8318 52.4712 43.7848 43.1032 43.7848 43.1032C43.7848 43.1032 39.3674 41.5937 37.2846 40.1195Z" fill="white"/>
</svg>
