<svg width="96" height="96" viewBox="0 0 96 96" fill="none" xmlns="http://www.w3.org/2000/svg">
<circle cx="48" cy="48" r="48" fill="#595761"/>
<path fill-rule="evenodd" clip-rule="evenodd" d="M45.0233 70.2994C46.1252 70.4681 47.2537 70.5555 48.4028 70.5555C60.6374 70.5555 70.5555 60.6374 70.5555 48.4028C70.5555 36.1681 60.6374 26.25 48.4028 26.25C47.582 26.25 46.7714 26.2946 45.9738 26.3816C52.0429 30.9796 56.0555 38.9445 56.0555 48C56.0555 57.5202 51.6205 65.835 45.0233 70.2994ZM48 77C64.0163 77 77 64.0163 77 48C77 31.9837 64.0163 19 48 19C31.9837 19 19 31.9837 19 48C19 64.0163 31.9837 77 48 77Z" fill="white"/>
</svg>
