<svg width="96" height="96" viewBox="0 0 96 96" fill="none" xmlns="http://www.w3.org/2000/svg">
<circle cx="48" cy="48" r="48" fill="#0C6AC8"/>
<path fill-rule="evenodd" clip-rule="evenodd" d="M50.8847 47.3711C51.2877 47.1272 51.6297 46.6163 51.9054 46.0484C55.5342 47.5199 58.0844 50.9972 58.0844 55.0525C58.0844 60.4397 53.5839 64.8069 48.0323 64.8069C45.7534 64.8069 43.6515 64.0709 41.9655 62.8307C41.4124 62.5708 40.9574 62.3212 40.585 62.1169C40.0075 61.8001 39.6287 61.5924 39.3916 61.6249C38.6983 61.7197 38.8996 62.3526 39.0825 62.9275C39.2067 63.318 39.3225 63.6818 39.1433 63.8318C38.9558 63.989 38.3486 63.4146 37.6391 62.7434C36.6733 61.8297 35.5179 60.7367 34.9731 61.065C34.5423 61.3247 34.9605 62.0289 35.4725 62.8908L35.5104 62.9548C35.7267 63.3191 35.9773 63.6902 36.206 64.0288C36.6709 64.7168 37.0454 65.2713 36.858 65.3651C36.6316 65.4785 35.0537 64.4218 33.724 62.9548C33.2107 62.3886 32.7136 61.7749 32.2516 61.2046V61.2045C31.2404 59.956 30.3979 58.916 29.9249 59.0392C29.356 59.1874 29.7864 60.3517 30.4188 61.4722C30.7145 61.9961 31.0623 62.5297 31.3635 62.9916V62.9918C31.8319 63.7101 32.1874 64.2553 32.0585 64.3224C31.8845 64.4126 30.3536 62.9315 29.3139 61.065C28.6963 59.9564 28.1777 58.7312 27.7579 57.7394C27.3026 56.6637 26.9634 55.8624 26.7401 55.7818C25.9642 55.5016 25.9642 57.0713 26.2754 59.3366C26.316 59.6322 26.3765 59.9422 26.4509 60.2578C29.4687 69.9459 38.7393 77 49.7076 77C63.124 77 74 66.4459 74 53.4267C74 41.0354 64.1478 30.8771 51.6301 29.9261C51.6459 29.3423 51.953 28.1848 51.953 28.1848C51.953 28.1848 54.1628 22.8799 54.2797 21.7463C54.2873 21.671 54.2965 21.5893 54.3064 21.5022C54.444 20.2774 54.7001 18 52.7255 18C51.6709 18 51.1806 18.7784 50.6197 19.6686C50.4044 20.0103 50.1786 20.3686 49.9066 20.7056C47.9475 23.133 44.6533 26.1642 42.7853 27.7791C38.8372 31.1925 34.9636 33.9978 32.7045 35.6339L32.7043 35.634C31.6768 36.378 30.9833 36.8803 30.7687 37.0879C29.1513 38.6523 23.3521 49.031 23.3521 49.031C23.3521 49.031 21.4767 52.3608 22.1433 53.0362C22.8099 53.7115 24.4174 53.5567 24.4174 53.5567C24.4174 53.5567 46.0129 48.6412 47.9463 48.2535C48.4669 48.1491 48.8344 48.0888 49.1165 48.0426C49.8824 47.9172 50.0199 47.8946 50.8847 47.3711ZM35.6159 41.0542C34.4567 42.1475 32.5342 44.757 32.5342 44.757C32.5342 44.757 36.1072 44.9753 38.075 43.1195C40.0429 41.2635 39.592 38.1007 39.592 38.1007C39.592 38.1007 36.775 39.961 35.6159 41.0542Z" fill="white"/>
</svg>
