<svg width="96" height="96" viewBox="0 0 96 96" fill="none" xmlns="http://www.w3.org/2000/svg">
<circle cx="48" cy="48" r="48" fill="#F2D94E"/>
<path fill-rule="evenodd" clip-rule="evenodd" d="M34.5009 23.0641C34.4895 23.0327 34.5142 23 34.5491 23H55.3807C55.4031 23 55.4229 23.0138 55.4295 23.034L64.9977 52.3198C65.0078 52.3509 64.9833 52.3824 64.9489 52.3824H51.0806C51.0637 52.3824 51.0515 52.3976 51.0561 52.4131L59.01 78.9382C59.0255 78.9897 58.9543 79.0233 58.9203 78.9805L28.0103 40.0393C27.9851 40.0074 28.009 39.962 28.051 39.962H40.6377C40.6552 39.962 40.6675 39.9457 40.6617 39.93L34.5009 23.0641Z" fill="white"/>
</svg>
