<svg width="96" height="96" viewBox="0 0 96 96" fill="none" xmlns="http://www.w3.org/2000/svg">
<circle cx="48" cy="48" r="48" fill="#EF90E6"/>
<path fill-rule="evenodd" clip-rule="evenodd" d="M31.4367 64.1983L40.5795 61.5472L48.4762 75.986C48.4866 76.0047 48.5134 76.0047 48.5237 75.986L56.4204 61.5472L65.5633 64.1983C65.5838 64.2042 65.6029 64.1851 65.5967 64.1646L62.9453 55.2028L76.9859 47.5237C77.0047 47.5134 77.0047 47.4866 76.986 47.4763L62.8296 39.7339L65.5967 30.3809C65.6029 30.3604 65.5838 30.3414 65.5633 30.3473L56.206 33.0605L48.5237 19.014C48.5134 18.9953 48.4866 18.9953 48.4764 19.014L40.794 33.0605L31.4367 30.3473C31.4162 30.3414 31.3972 30.3604 31.4033 30.3809L34.1704 39.7339L20.014 47.4763C19.9953 47.4866 19.9953 47.5134 20.014 47.5237L34.0546 55.2028L31.4033 64.1646C31.3972 64.1851 31.4162 64.2042 31.4367 64.1983ZM38.5314 47.5985L45.0086 51.1409L48.5511 57.618C48.5613 57.6368 48.5882 57.6368 48.5985 57.618L52.1409 51.1409L58.618 47.5985C58.6367 47.5882 58.6367 47.5613 58.618 47.551L52.1409 44.0086L48.5985 37.5315C48.5882 37.5127 48.5613 37.5127 48.5511 37.5315L45.0086 44.0086L38.5314 47.551C38.5127 47.5613 38.5127 47.5882 38.5314 47.5985Z" fill="white"/>
</svg>
