<svg width="96" height="96" viewBox="0 0 96 96" fill="none" xmlns="http://www.w3.org/2000/svg">
<circle cx="48" cy="48" r="48" fill="#D3425F"/>
<path fill-rule="evenodd" clip-rule="evenodd" d="M29.0495 22.905C29.7497 20.0859 32.2542 18 35.2364 18C37.4732 18 39.4414 19.1736 40.5809 20.95H42.4469C43.6062 19.7368 45.2259 18.9833 47.0182 18.9833C49.6459 18.9833 51.9028 20.6029 52.8812 22.9167H54.4434C55.4224 22.2935 56.5791 21.9333 57.8181 21.9333C60.446 21.9333 62.7028 23.5529 63.6811 25.8667H67.9295C67.9657 25.8667 67.9997 25.8766 68.029 25.894C68.223 25.8759 68.4195 25.8667 68.6181 25.8667C72.1427 25.8667 74.9999 28.7803 74.9999 32.3746V51.8888L75 51.925L74.9999 51.9612V52.2422C74.9999 52.3613 74.9967 52.4799 74.9904 52.5979C74.6064 66.1354 62.6694 77 47.9999 77C33.0883 77 21 65.7735 21 51.925C21 45.2404 23.8166 39.1666 28.4077 34.6715C28.3962 41.1884 28.5042 47.9257 29.0018 47.8101C30.3341 47.5003 29.2931 27.3155 29.0495 22.905Z" fill="white"/>
</svg>
