<svg width="96" height="96" viewBox="0 0 96 96" fill="none" xmlns="http://www.w3.org/2000/svg">
<circle cx="48" cy="48" r="48" fill="#FBA64C"/>
<path fill-rule="evenodd" clip-rule="evenodd" d="M58.5563 63.0185C59.2488 60.4434 57.9046 55.1494 57.9046 55.1494C57.9046 55.1494 56.9297 59.4621 55.4062 61.0561C54.1066 62.4158 52.5143 63.3588 50.2307 63.6066C52.0978 62.6844 53.3818 60.7614 53.3818 58.5388C53.3818 55.4187 50.8516 52.8893 47.7306 52.8893C44.6095 52.8893 42.0793 55.4187 42.0793 58.5388C42.0793 59.3909 42.2681 60.199 42.6061 60.9235C40.654 59.342 40.347 56.8064 40.347 56.8064C40.347 56.8064 38.1672 66.0099 44.1735 70.3392C50.1797 74.6685 61.9457 70.9473 61.9457 70.9473C61.9457 70.9473 45.1078 82.9956 32.6308 69.8825C21.8829 58.5865 29.8256 43.7152 29.8256 43.7152C29.8256 43.7152 29.4826 45.0948 29.4826 46.6962C29.4826 48.2977 30.3364 49.5162 30.3364 49.5162C30.3364 49.5162 32.8833 44.0567 34.8654 41.8365C36.7413 39.7353 39.0929 38.0311 41.124 36.5591C42.6875 35.426 44.0612 34.4305 44.8816 33.4975C49.4003 28.3592 46.6296 19 46.6296 19C46.6296 19 51.7234 23.5667 53.1454 29.4646C53.6875 31.7128 53.3387 34.2708 53.027 36.5582C52.5208 40.2717 52.1117 43.2723 55.7686 43.0776C61.6781 42.7629 56.5429 33.4975 56.5429 33.4975C56.5429 33.4975 69.948 40.6626 68.9466 53.1939C67.945 65.7252 54.2941 68.5741 54.2941 68.5741C54.2941 68.5741 57.8637 65.5936 58.5563 63.0185Z" fill="white"/>
</svg>
