<svg width="96" height="96" viewBox="0 0 96 96" fill="none" xmlns="http://www.w3.org/2000/svg">
<circle cx="48" cy="48" r="48" fill="#A1BBEC"/>
<path fill-rule="evenodd" clip-rule="evenodd" d="M39.2448 72C47.7412 72 55.0152 67.3969 58.0182 60.8715C58.0549 60.7919 45.9618 63.9351 46.3474 62.824C46.5196 62.3278 53.9327 59.688 59.3336 56.6088C62.4379 54.839 63.8674 51.0926 63.8674 51.0926C63.8674 51.0926 58.6375 53.5678 55.9937 54.1957C50.6658 55.4612 45.9758 55.3249 45.9758 55.193C45.9758 54.9079 53.7634 53.4655 64.5872 47.0359C69.6784 44.0117 71.0612 38.8024 71.0612 38.8024C71.0612 38.8024 65.4639 42.0525 62.0802 43.1255C54.0557 45.6701 46.733 46.4369 46.733 46.0926C46.733 45.3553 53.1772 43.6279 60.0097 40.4007C63.5622 38.7228 66.6388 36.5306 70.2041 34.0927C76.0379 30.104 77 23 77 23C77 23 71.2462 26.6176 68.4383 27.819C56.852 32.7762 46.6213 35.3765 39.2448 35.9395C28.1096 36.7893 19 44.3627 19 54.1957C19 64.0287 28.0639 72 39.2448 72Z" fill="white"/>
</svg>
