<svg width="96" height="96" viewBox="0 0 96 96" fill="none" xmlns="http://www.w3.org/2000/svg">
<circle cx="48" cy="48" r="48" fill="#5F6DBC"/>
<path fill-rule="evenodd" clip-rule="evenodd" d="M61.0747 75.8026C55.9333 76.0658 50.047 76.0658 48.0467 75.8026C32.4431 73.7498 20 62.3415 20 46.9211C20 31.5007 32.7599 19 48.5 19C64.2401 19 77 31.5007 77 46.9211C77 54.093 74.2398 60.6333 69.7036 65.5782C68.4717 66.921 70.1619 67.8628 71.8791 68.8198C73.5633 69.7584 75.2735 70.7115 74.2796 72.0715C73.1843 73.57 67.2468 75.4867 61.0747 75.8026ZM44.4922 43.431C44.4922 45.8403 42.4984 47.7936 40.0391 47.7936C37.5797 47.7936 35.5859 45.8403 35.5859 43.431C35.5859 41.815 36.4827 40.4044 37.8152 39.6504C37.8919 41.7512 39.6192 43.4308 41.7389 43.4308L44.4922 43.431ZM58.2942 39.6504C58.2175 41.7512 56.4901 43.4308 54.3704 43.4308H51.6172C51.6172 45.8402 53.611 47.7936 56.0703 47.7936C58.5297 47.7936 60.5234 45.8403 60.5234 43.431C60.5234 41.815 59.6267 40.4044 58.2942 39.6504Z" fill="white"/>
</svg>
