<svg width="96" height="96" viewBox="0 0 96 96" fill="none" xmlns="http://www.w3.org/2000/svg">
<circle cx="48" cy="48" r="48" fill="#60BD58"/>
<path fill-rule="evenodd" clip-rule="evenodd" d="M30.3469 67.9786C30.1466 67.7943 29.9485 67.6063 29.7527 67.4147C19.4158 57.3012 19.4158 40.9038 29.7527 30.7902C40.0896 20.6766 73.027 20 73.027 20C73.027 20 77.5229 57.3012 67.1861 67.4147C58.0055 76.397 43.7591 77.4018 33.4451 70.4294L41.7557 60.4511L55.041 57.6448L44.1963 56.5841L51.0882 49.7184L58.9333 48.0369L52.7299 46.2395L58.9333 35.2904L50.1095 44.9739L46.7021 40.2694L47.9016 48.0369L41.7557 54.8156L38.9068 46.2394V57.6448L30.3469 67.9786Z" fill="white"/>
</svg>
