<svg width="96" height="96" viewBox="0 0 96 96" fill="none" xmlns="http://www.w3.org/2000/svg">
<circle cx="48" cy="48" r="48" fill="#DA7C4D"/>
<path fill-rule="evenodd" clip-rule="evenodd" d="M32.3336 67.8404C32.3184 67.8404 32.3078 67.8253 32.3128 67.8108L46.6098 27.0148C46.613 27.0059 46.6213 27 46.6306 27H61.8931C61.9024 27 61.9108 27.006 61.9139 27.0149L75.9988 67.8109C76.0037 67.8254 75.9931 67.8404 75.978 67.8404H32.7632H32.3336ZM20.022 68C20.0067 68 19.996 67.9845 20.0014 67.9701L30.648 39.2665C30.6512 39.2577 30.6594 39.252 30.6686 39.252H39.9192C39.9345 39.252 39.9452 39.2673 39.9399 39.2818L29.645 67.9854C29.6418 67.9941 29.6336 68 29.6243 68H20.022Z" fill="white"/>
</svg>
