<svg width="96" height="96" viewBox="0 0 96 96" fill="none" xmlns="http://www.w3.org/2000/svg">
<circle cx="48" cy="48" r="48" fill="#76D1C1"/>
<path fill-rule="evenodd" clip-rule="evenodd" d="M62.4806 23.0635L62.6575 38.6015L49.1051 45.1072L48.938 30.4364L62.4806 23.0635Z" fill="white"/>
<path fill-rule="evenodd" clip-rule="evenodd" d="M76.0659 47.5478L62.65 55.2216L49.2261 47.5357L62.643 40.488L76.0659 47.5478Z" fill="white"/>
<path fill-rule="evenodd" clip-rule="evenodd" d="M46.8398 47.5478L33.4239 55.2216L20 47.5357L33.417 40.488L46.8398 47.5478Z" fill="white"/>
<path fill-rule="evenodd" clip-rule="evenodd" d="M33.2732 23L47.198 29.8964L46.842 44.9252L33.6944 38.4137L33.2732 23Z" fill="white"/>
<path fill-rule="evenodd" clip-rule="evenodd" d="M62.8594 71.8599L48.9346 64.9635L49.2906 49.9346L62.4382 56.4462L62.8594 71.8599Z" fill="white"/>
<path fill-rule="evenodd" clip-rule="evenodd" d="M33.7541 72L33.5771 56.462L47.1296 49.9563L47.2967 64.627L33.7541 72Z" fill="white"/>
</svg>
