<svg width="96" height="96" viewBox="0 0 96 96" fill="none" xmlns="http://www.w3.org/2000/svg">
<circle cx="48" cy="48" r="48" fill="#B763CF"/>
<path fill-rule="evenodd" clip-rule="evenodd" d="M66.7929 63.0335C72.4479 58.5118 76 51.9786 76 44.7133C76 31.0645 63.464 20 48 20C32.536 20 20 31.0645 20 44.7133C20 51.7163 23.3002 58.0391 28.6029 62.536C28.2816 63.6457 28.1053 64.8526 28.1053 66.1147C28.1053 71.5741 31.4042 76 35.4737 76C38.118 76 40.4369 74.1313 41.7369 71.3247C43.0368 74.1313 45.3557 76 48 76C50.4104 76 52.5504 74.4473 53.8948 72.0469C55.2391 74.4473 57.3791 76 59.7894 76C63.8589 76 67.1579 71.5741 67.1579 66.1147C67.1579 65.0389 67.0297 64.0031 66.7929 63.0335ZM64.2106 45.2034C64.2106 52.1327 56.7878 57.7501 47.6316 57.7501C38.4753 57.7501 31.0527 52.1327 31.0527 45.2034C31.0527 38.274 38.4753 32.6567 47.6316 32.6567C56.7878 32.6567 64.2106 38.274 64.2106 45.2034Z" fill="white"/>
</svg>
