<svg width="96" height="96" viewBox="0 0 96 96" fill="none" xmlns="http://www.w3.org/2000/svg">
<circle cx="48" cy="48" r="48" fill="#FA8582"/>
<path fill-rule="evenodd" clip-rule="evenodd" d="M69.898 66.5095C69.898 66.5095 62.8368 72.1735 48.7851 69.8296C38.1244 68.0513 32.4384 56.2982 32.4384 49.9806C32.4384 35.0023 43.5231 31.5937 51.0172 31.5937C58.5111 31.5937 63.3998 38.9007 63.3998 44.5582C63.3998 50.2157 59.3989 55.1641 53.1725 55.1641C46.9462 55.1641 45.1022 50.7925 45.1022 46.7733C45.1022 42.7542 48.3536 41.3382 51.3188 41.3382C54.2841 41.3382 55.2994 43.8701 55.2994 46.0461C55.2994 48.2222 53.6112 49.0015 52.2031 49.0015C50.795 49.0015 50.6558 48.291 50.1169 47.5444C49.5779 46.7978 50.8042 43.9717 48.7851 43.9717C46.7661 43.9717 46.3897 47.2206 46.3897 47.2206C46.3897 47.2206 47.1258 53.4921 53.1725 53.3839C59.2193 53.2756 62.0879 48.6004 61.2542 43.9717C60.4206 39.3429 55.9289 34.4243 48.0458 35.4182C40.1627 36.4121 36.9441 44.3781 38.3628 52.891C39.7815 61.404 49.9789 66.3365 57.9966 64.5619C66.0144 62.7873 74 56.9822 74 42.2638C74 27.5454 61.2542 18.6983 46.056 20.1563C30.8578 21.6144 21.4235 34.9031 22.0274 50.8697C22.6312 66.8364 37.7801 75.5323 50.5899 75.9805C63.3998 76.4287 71.2528 69.0126 71.2528 69.0126C71.2528 69.0126 73.0189 67.4376 72.3265 66.2076C71.6341 64.9777 69.898 66.5095 69.898 66.5095Z" fill="white"/>
</svg>
