<svg width="96" height="96" viewBox="0 0 96 96" fill="none" xmlns="http://www.w3.org/2000/svg">
<circle cx="48" cy="48" r="48" fill="#C9BC8A"/>
<path fill-rule="evenodd" clip-rule="evenodd" d="M63.2381 46.4555C63.235 46.4512 63.2336 46.4459 63.2345 46.4406L66.7998 26.0163C66.8014 26.0069 66.8098 26 66.8194 26H67.9478C67.9565 26 67.9642 26.0055 67.9668 26.0137L75.9991 50.9994C76.0016 51.0072 75.9989 51.0157 75.9923 51.0208L70.07 55.5635C70.0611 55.5703 70.0484 55.5686 70.0417 55.5597L63.2381 46.4555ZM20 59.9954C20 60.0038 20.0055 60.0113 20.0137 60.014L32.222 63.9357C32.2279 63.9376 32.2344 63.9366 32.2395 63.9332L59.5278 45.4247C59.5324 45.4216 59.5355 45.4168 59.5362 45.4114L62.4625 26.121C62.4644 26.1092 62.455 26.0985 62.4429 26.0985H38.2722C38.2662 26.0985 38.2607 26.1011 38.2568 26.1056L20.0046 47.7377C20.0016 47.7413 20 47.7457 20 47.7503V59.9954ZM37.3092 64.9349L50.6465 69.2271C50.6525 69.229 50.6591 69.2281 50.6643 69.2244L66.5432 58.0343C66.552 58.0282 66.5542 58.0163 66.5482 58.0075L60.5956 49.3049C60.5894 49.2958 60.577 49.2935 60.5678 49.2997L37.3092 64.9349Z" fill="white"/>
</svg>
