<svg width="96" height="96" viewBox="0 0 96 96" fill="none" xmlns="http://www.w3.org/2000/svg">
<circle cx="48" cy="48" r="48" fill="#5795A3"/>
<path fill-rule="evenodd" clip-rule="evenodd" d="M20.0056 48.034C19.9981 48.0214 19.9981 48.0057 20.0056 47.9929L34.087 24.0201C34.0943 24.0077 34.1078 24 34.1222 24H62.0322C62.0468 24 62.0602 24.0077 62.0675 24.0203L75.9945 47.9931C76.0018 48.0057 76.0018 48.0213 75.9945 48.0338L62.0675 71.9797C62.0602 71.9923 62.0468 72 62.0322 72H34.1222C34.1078 72 34.0943 71.9924 34.087 71.9799L20.0056 48.034ZM60.9738 48C60.9738 55.1372 55.1672 60.923 48.0044 60.923C40.8417 60.923 35.035 55.1372 35.035 48C35.035 40.8627 40.8417 35.077 48.0044 35.077C55.1672 35.077 60.9738 40.8627 60.9738 48Z" fill="white"/>
</svg>
