<svg width="96" height="96" viewBox="0 0 96 96" fill="none" xmlns="http://www.w3.org/2000/svg">
<circle cx="48" cy="48" r="48" fill="#539DDF"/>
<path fill-rule="evenodd" clip-rule="evenodd" d="M66 57.9018C66 67.8971 57.9412 76 48 76C38.0588 76 30 67.8971 30 57.9018C30 48.1805 47.0263 21.4819 47.9601 20.0249C47.9815 19.9917 48.0186 19.9917 48.0399 20.0249C48.9737 21.4819 66 48.1805 66 57.9018ZM44.9995 70.1978C35.8654 68.1808 37.4284 57.9691 37.4284 57.9691C37.4284 57.9691 39.9226 64.1335 45.9754 66.1303C52.0281 68.1271 59.3427 65.1985 59.3427 65.1985C59.3427 65.1985 54.1335 72.2148 44.9995 70.1978Z" fill="white"/>
</svg>
